<?xml version="1.0" encoding="UTF-8" standalone="no" ?>
<!DOCTYPE svg PUBLIC "-//W3C//DTD SVG 1.1//EN" "http://www.w3.org/Graphics/SVG/1.1/DTD/svg11.dtd">
<svg xmlns="http://www.w3.org/2000/svg" xmlns:xlink="http://www.w3.org/1999/xlink" version="1.1" width="400" height="400" viewBox="0 0 400 400" xml:space="preserve">
<desc>Created with Fabric.js 3.6.2</desc>
<defs>
</defs>
<g transform="matrix(4.55 0 0 4.55 200 200)" id="Layer_1"  >
<path style="stroke: none; stroke-width: 1; stroke-dasharray: none; stroke-linecap: butt; stroke-dashoffset: 0; stroke-linejoin: miter; stroke-miterlimit: 4; fill: rgb(97,171,243); fill-rule: nonzero; opacity: 1;"  transform=" translate(-24, -31)" d="M 43 16 H 5 c -1.7 0 -3 1.3 -3 3 v 24 c 0 1.7 1.3 3 3 3 h 38 c 1.7 0 3 -1.3 3 -3 V 19 C 46 17.3 44.7 16 43 16 z M 44 43.1 L 28.8 33 L 44 19.2 L 44 43.1 C 44 43 44 43.1 44 43.1 z M 4 43 V 19.3 L 19.1 33 L 4 43 C 4 43.1 4 43 4 43 z M 24.6 34 c -0.4 0.4 -1 0.4 -1.4 0 L 5.5 18 h 36.8 L 24.6 34 z M 20.7 34.4 l 1.3 1.2 c 0.6 0.5 1.3 0.8 2 0.8 c 0.7 0 1.4 -0.3 2 -0.8 l 1.3 -1.2 L 41.7 44 H 6.3 L 20.7 34.4 z" stroke-linecap="round" />
</g>
</svg>